<svg width="26" height="26" viewBox="0 0 26 26" fill="none" xmlns="http://www.w3.org/2000/svg">
<path d="M7.9824 22.3112C9.54414 23.1945 11.3432 23.6951 13.259 23.6951C19.1931 23.6951 24.0153 18.8695 24.0153 12.9365C24.0153 7.00351 19.1931 2.17791 13.259 2.17791H13.2544C7.32047 2.17791 2.4981 7.00223 2.4981 12.9365C2.4981 14.9969 3.08063 16.9289 4.09273 18.5681L3.52209 20.8336L2.84269 23.531L5.54909 22.8887L7.9824 22.3112Z" fill="white" stroke="#151515" stroke-width="3.3766"/>
<path d="M17.774 17.3789L17.6971 17.4559C17.3135 17.8426 16.7993 18.0723 16.2552 18.0999H15.8755C13.8665 18.0999 12.2515 17.3501 10.5453 15.6486C8.73327 13.8365 8.00278 12.1303 8.10374 9.9386H8.10364C8.13121 9.39454 8.36091 8.88033 8.74767 8.49667L8.82459 8.41975C9.31114 7.93117 9.99895 7.69942 10.6819 7.79395C11.3649 7.88836 11.964 8.29808 12.2997 8.90039L12.4055 9.09264H12.4054C12.5388 9.33586 12.59 9.61577 12.551 9.89054C12.512 10.1652 12.385 10.4199 12.1891 10.6163L11.545 11.2604C11.9169 11.9761 12.404 12.6256 12.987 13.1829C13.5443 13.7659 14.1938 14.253 14.9095 14.6249L15.5487 13.9904C15.7498 13.7928 16.0103 13.667 16.2901 13.6322C16.5698 13.5975 16.8531 13.6557 17.0964 13.7981L17.2887 13.9039C17.891 14.2396 18.3007 14.8386 18.3951 15.5216C18.4896 16.2046 18.2579 16.8923 17.7693 17.3789L17.774 17.3789Z" fill="#151515"/>
</svg>
