<svg width="23" height="24" viewBox="0 0 23 24" fill="none" xmlns="http://www.w3.org/2000/svg">
<path d="M21.4124 4.66087L18.5051 7.53861C16.6653 5.5906 14.5205 4.6166 12.0708 4.6166C9.93582 4.6166 8.14523 5.32496 6.69898 6.7417C5.26257 8.15843 4.54436 9.88016 4.54436 11.9069C4.54436 14.0025 5.29208 15.7783 6.78753 17.2344C8.28297 18.6905 10.1277 19.4185 12.3216 19.4185C13.7482 19.4185 14.9485 19.1185 15.9225 18.5183C16.9064 17.9182 17.6984 16.9786 18.2985 15.6996H12.0117V11.8183H22.9324L22.9619 12.7333C22.9619 14.6321 22.47 16.4326 21.4861 18.1346C20.5023 19.8367 19.2282 21.1353 17.6639 22.0306C16.0996 22.9259 14.2647 23.3736 12.1593 23.3736C9.90631 23.3736 7.89435 22.8866 6.12343 21.9126C4.36235 20.9287 2.96529 19.5317 1.93226 17.7214C0.90906 15.9111 0.397461 13.9582 0.397461 11.8626C0.397461 8.98978 1.34687 6.49082 3.24569 4.36572C5.49869 1.83724 8.43054 0.572998 12.0412 0.572998C13.9302 0.572998 15.6962 0.922263 17.3392 1.62079C18.7265 2.2111 20.0842 3.22446 21.4124 4.66087Z" fill="#151515"/>
</svg>
