<svg width="104" height="87" viewBox="0 0 104 87" fill="none" xmlns="http://www.w3.org/2000/svg">
<path d="M15.1737 47.3106H20.4069C23.6049 47.3106 25.8437 46.6415 27.1212 45.3056C28.1085 44.2013 28.6043 42.8351 28.6043 41.2069C28.6043 39.347 28.0219 37.8941 26.8592 36.8462C25.638 35.8004 23.488 35.2764 20.4069 35.2764H15.1737V47.3106ZM0 59.0827V0.916992H37.8475V13.7371H15.1737V23.7663H21.1041C29.7671 23.7663 35.8989 25.6565 39.5039 29.4347C42.4681 32.5743 43.9512 36.5864 43.9512 41.4689C43.9512 46.3514 42.3533 50.6536 39.1553 53.8516C35.6087 57.3397 29.4185 59.0849 20.5801 59.0849H0V59.0827Z" fill="black"/>
<path d="M71.8288 65.881V83.759C66.5392 85.6773 62.1786 86.6365 58.7489 86.6365C49.6789 86.6365 42.1808 83.7286 36.2504 77.9151C33.4595 75.1242 31.2791 71.8699 29.7093 68.1479C28.198 64.3697 27.4424 60.5611 27.4424 56.7244C27.4424 52.8876 28.2262 48.8171 29.7959 45.0388C31.4242 41.2606 33.5742 38.0041 36.2482 35.2716C42.1787 29.2264 49.5035 26.2017 58.2249 26.2017C62.4687 26.2017 67.0026 27.189 71.8288 29.1658V47.217C68.3992 42.9732 64.0103 40.8513 58.6601 40.8513C54.5333 40.8513 51.0451 42.131 48.1957 44.6881C44.8245 47.8276 43.1379 51.8094 43.1379 56.6356C43.1379 61.4618 44.7076 65.0062 47.8471 67.9725C50.6965 70.6466 54.2994 71.9846 58.6601 71.9846C63.718 71.9846 68.1068 69.9494 71.8288 65.881Z" fill="black"/>
<path d="M104 40.4813V58.3593C98.7101 60.2777 94.3495 61.2369 90.9198 61.2369C81.8498 61.2369 74.3517 58.329 68.4213 52.5155C65.6304 49.7245 63.45 46.4703 61.8802 42.7483C60.3689 38.97 59.6133 35.1615 59.6133 31.3247C59.6133 27.488 60.3971 23.4175 61.9669 19.6392C63.5951 15.8609 65.7451 12.6045 68.4191 9.87202C74.3496 3.82681 81.6744 0.804199 90.3958 0.804199C94.6396 0.804199 99.1735 1.79153 104 3.76835V21.8195C100.57 17.5758 96.1812 15.4539 90.831 15.4539C86.7042 15.4539 83.216 16.7335 80.3666 19.2906C76.9954 22.4301 75.3088 26.4119 75.3088 31.2381C75.3088 36.0643 76.8785 39.6088 80.0181 42.5751C82.8674 45.2491 86.4703 46.5872 90.831 46.5872C95.8889 46.5872 100.278 44.5519 104 40.4835V40.4813Z" fill="black"/>
</svg>
